<?xml version="1.0" standalone="no"?>
<!DOCTYPE svg PUBLIC "-//W3C//DTD SVG 20010904//EN"
 "http://www.w3.org/TR/2001/REC-SVG-20010904/DTD/svg10.dtd">
<svg version="1.0" xmlns="http://www.w3.org/2000/svg"
 width="616.000000pt" height="616.000000pt" viewBox="0 0 616.000000 616.000000"
 preserveAspectRatio="xMidYMid meet">
<metadata>
Created by potrace 1.11, written by Peter Selinger 2001-2013
</metadata>
<g transform="translate(0.000000,616.000000) scale(0.100000,-0.100000)"
fill="#000000" stroke="none">
<path d="M2990 6133 c-25 -15 -46 -31 -48 -35 -2 -4 -8 -8 -13 -8 -5 0 -46
-24 -92 -53 -45 -30 -102 -66 -127 -81 -75 -45 -84 -50 -98 -63 -7 -7 -18 -13
-23 -13 -6 0 -25 -11 -43 -25 -18 -14 -36 -25 -40 -25 -3 0 -28 -15 -54 -33
-26 -18 -76 -50 -112 -71 -36 -22 -94 -58 -130 -81 -105 -68 -470 -296 -727
-454 -134 -83 -237 -149 -251 -161 -6 -6 -12 -8 -12 -4 0 4 -8 0 -17 -8 -10
-9 -74 -50 -143 -93 -69 -42 -141 -87 -160 -100 -19 -12 -135 -84 -256 -160
-140 -87 -228 -149 -238 -166 -15 -25 -16 -164 -16 -1526 l0 -1498 1244 0
1245 0 24 29 c31 36 30 87 -3 116 -27 23 -14 22 -205 24 l-150 1 -1 58 c-1 37
2 60 10 63 6 2 82 6 169 7 177 2 193 9 202 79 4 31 0 40 -26 62 -30 26 -33 26
-194 26 l-163 0 2 59 c0 33 4 62 7 65 3 3 77 7 163 7 l157 2 28 28 c47 46 34
106 -29 131 -20 8 -149 13 -188 7 -4 -1 -11 0 -17 1 -5 1 -35 2 -66 1 l-56 -1
2 63 c1 34 3 64 3 67 1 3 75 4 164 4 l162 -1 27 28 c22 24 27 37 23 65 -6 46
-25 65 -72 71 -20 2 -343 5 -717 6 l-679 2 -1 638 c0 664 2 696 42 711 8 3 38
21 66 40 29 18 138 87 242 151 105 65 206 127 225 140 80 51 386 241 405 251
25 13 78 47 85 54 9 10 65 41 83 47 9 3 17 9 17 13 0 4 14 13 30 20 17 7 30
16 30 21 0 5 4 9 10 9 5 0 72 39 150 88 165 103 207 126 237 130 28 4 57 -11
220 -115 73 -45 137 -83 143 -83 5 0 10 -3 10 -7 0 -5 21 -20 48 -36 59 -35
76 -45 129 -79 23 -16 46 -28 51 -28 6 0 12 -4 14 -8 2 -6 269 -174 373 -235
11 -7 22 -15 25 -18 3 -3 21 -14 40 -24 19 -10 37 -21 40 -24 3 -3 19 -14 35
-24 46 -27 210 -128 258 -159 23 -15 58 -37 77 -48 114 -67 119 -71 139 -108
10 -18 12 -333 12 -1409 0 -762 -2 -1387 -5 -1390 -3 -3 -962 -6 -2131 -7
l-2126 -1 -19 -25 c-27 -35 -25 -81 5 -114 l24 -26 166 0 165 0 0 -65 0 -64
-152 0 c-84 1 -159 0 -166 0 -21 -2 -62 -52 -62 -77 0 -31 19 -71 39 -80 9 -4
88 -8 176 -9 l160 -1 3 -65 3 -65 -163 1 -163 1 -28 -27 c-34 -35 -36 -78 -3
-116 l24 -27 166 0 166 0 0 -63 0 -63 -42 -1 c-24 0 -98 0 -164 0 -106 1 -124
-2 -144 -19 -31 -27 -37 -88 -11 -120 l20 -25 2670 -3 2671 -2 0 2236 c0 2094
-1 2238 -17 2265 -10 16 -20 29 -24 29 -4 0 -72 41 -151 91 -79 49 -152 95
-163 102 -11 7 -39 24 -62 40 -23 15 -46 27 -52 27 -6 0 -11 5 -11 10 0 6 -7
10 -15 10 -8 0 -15 5 -15 10 0 6 -5 10 -10 10 -6 0 -44 23 -86 50 -41 28 -78
50 -80 50 -3 0 -17 8 -32 19 -15 10 -52 34 -82 53 -30 19 -75 48 -100 64 -25
15 -47 29 -50 29 -3 1 -50 30 -106 65 -55 36 -109 70 -120 77 -10 7 -61 38
-112 70 -51 32 -104 65 -117 73 -14 8 -116 73 -227 143 -112 71 -212 134 -223
140 -11 7 -44 28 -75 47 -31 19 -63 40 -73 45 -9 6 -52 32 -94 59 -43 27 -150
94 -238 149 -88 55 -182 115 -210 132 -77 49 -93 56 -143 61 -38 3 -56 -1 -92
-23z"/>
</g>
</svg>
