<svg xmlns="http://www.w3.org/2000/svg" viewBox="0 0 500 500">
    <path d="M250.4 173.8c-1.3-.4-2.3-.4-3.1 0L183 214c-.8.6-1.2 1.4-1.2 2.2v74.2H243c.6 0 1.1-.2 1.5-.7.4-.4.6-.9.6-1.5s-.2-1-.6-1.4c-.4-.4-.9-.6-1.5-.6h-7.5V283h7.5c.6 0 1.1-.2 1.5-.7.4-.4.6-.9.6-1.5s-.2-1-.6-1.4c-.4-.4-.9-.6-1.5-.6h-7.5v-3.3h7.5c.6 0 1.1-.2 1.5-.7.4-.4.6-.9.6-1.5s-.2-1-.6-1.4c-.4-.4-.9-.6-1.5-.6h-7.5V268h7.5c.6 0 1.1-.2 1.5-.7.4-.4.6-.9.6-1.5s-.2-1-.6-1.4c-.4-.4-.9-.6-1.5-.6h-34.6V232c0-1 .5-1.7 1.4-2.2l37.7-23.4c1-.6 1.9-.6 2.9 0l37.6 23.4c.8.6 1.1 1.4 1.1 2.2v68.8H183.8c-.6 0-1.1.2-1.5.6-.3.4-.5.9-.5 1.5s.2 1 .5 1.5c.4.4.9.6 1.5.6h7.5v3.2h-7.5c-.6 0-1.1.2-1.5.6-.3.4-.5.9-.5 1.5s.2 1 .5 1.5c.4.4.9.6 1.5.6h7.5v3.2h-7.5c-.6 0-1.1.2-1.5.6-.3.4-.5.9-.5 1.5s.2 1 .5 1.5c.4.4.9.6 1.5.6h7.5v3.2h-7.5c-.6 0-1.1.2-1.5.6-.3.4-.5.9-.5 1.5s.2 1 .5 1.5c.4.4.9.6 1.5.6H316V216.3c0-1.1-.4-1.8-1.3-2.2l-64.3-40.3z" />
  </svg>