<?xml version="1.0" encoding="UTF-8" standalone="no"?>
<svg
   xmlns:dc="http://purl.org/dc/elements/1.1/"
   xmlns:cc="http://creativecommons.org/ns#"
   xmlns:rdf="http://www.w3.org/1999/02/22-rdf-syntax-ns#"
   xmlns:svg="http://www.w3.org/2000/svg"
   xmlns="http://www.w3.org/2000/svg"
   xmlns:sodipodi="http://sodipodi.sourceforge.net/DTD/sodipodi-0.dtd"
   xmlns:inkscape="http://www.inkscape.org/namespaces/inkscape"
   viewBox="0 0 134.2 153.7"
   version="1.1"
   id="svg60"
   sodipodi:docname="logo45.svg"
   width="134.2"
   height="153.7"
   inkscape:version="0.92.2 5c3e80d, 2017-08-06">
  <metadata
     id="metadata66">
    <rdf:RDF>
      <cc:Work
         rdf:about="">
        <dc:format>image/svg+xml</dc:format>
        <dc:type
           rdf:resource="http://purl.org/dc/dcmitype/StillImage" />
        <dc:title></dc:title>
      </cc:Work>
    </rdf:RDF>
  </metadata>
  <defs
     id="defs64" />
  <sodipodi:namedview
     pagecolor="#ffffff"
     bordercolor="#666666"
     borderopacity="1"
     objecttolerance="10"
     gridtolerance="10"
     guidetolerance="10"
     inkscape:pageopacity="0"
     inkscape:pageshadow="2"
     inkscape:window-width="1092"
     inkscape:window-height="764"
     id="namedview62"
     showgrid="false"
     fit-margin-top="0"
     fit-margin-left="0"
     fit-margin-right="0"
     fit-margin-bottom="0"
     inkscape:zoom="1.236"
     inkscape:cx="68.2"
     inkscape:cy="77.2"
     inkscape:window-x="0"
     inkscape:window-y="0"
     inkscape:window-maximized="0"
     inkscape:current-layer="svg60" />
  <path
     d="m 68.6,0.3 c -1.3,-0.4 -2.3,-0.4 -3.1,0 L 1.2,40.5 C 0.4,41.1 0,41.9 0,42.7 v 74.2 h 61.2 c 0.6,0 1.1,-0.2 1.5,-0.7 0.4,-0.4 0.6,-0.9 0.6,-1.5 0,-0.6 -0.2,-1 -0.6,-1.4 -0.4,-0.4 -0.9,-0.6 -1.5,-0.6 h -7.5 v -3.2 h 7.5 c 0.6,0 1.1,-0.2 1.5,-0.7 0.4,-0.4 0.6,-0.9 0.6,-1.5 0,-0.6 -0.2,-1 -0.6,-1.4 -0.4,-0.4 -0.9,-0.6 -1.5,-0.6 H 53.7 V 102 h 7.5 c 0.6,0 1.1,-0.2 1.5,-0.7 0.4,-0.4 0.6,-0.9 0.6,-1.5 0,-0.6 -0.2,-1 -0.6,-1.4 -0.4,-0.4 -0.9,-0.6 -1.5,-0.6 h -7.5 v -3.3 h 7.5 c 0.6,0 1.1,-0.2 1.5,-0.7 0.4,-0.4 0.6,-0.9 0.6,-1.5 0,-0.6 -0.2,-1 -0.6,-1.4 -0.4,-0.4 -0.9,-0.6 -1.5,-0.6 H 26.6 V 58.5 c 0,-1 0.5,-1.7 1.4,-2.2 L 65.7,32.9 c 1,-0.6 1.9,-0.6 2.9,0 l 37.6,23.4 c 0.8,0.6 1.1,1.4 1.1,2.2 v 68.8 H 2 c -0.6,0 -1.1,0.2 -1.5,0.6 -0.3,0.4 -0.5,0.9 -0.5,1.5 0,0.6 0.2,1 0.5,1.5 0.4,0.4 0.9,0.6 1.5,0.6 h 7.5 v 3.2 H 2 c -0.6,0 -1.1,0.2 -1.5,0.6 -0.3,0.4 -0.5,0.9 -0.5,1.5 0,0.6 0.2,1 0.5,1.5 0.4,0.4 0.9,0.6 1.5,0.6 h 7.5 v 3.2 H 2 c -0.6,0 -1.1,0.2 -1.5,0.6 -0.3,0.4 -0.5,0.9 -0.5,1.5 0,0.6 0.2,1 0.5,1.5 0.4,0.4 0.9,0.6 1.5,0.6 h 7.5 v 3.2 H 2 c -0.6,0 -1.1,0.2 -1.5,0.6 -0.3,0.4 -0.5,0.9 -0.5,1.5 0,0.6 0.2,1 0.5,1.5 0.4,0.4 0.9,0.6 1.5,0.6 H 134.2 V 42.8 c 0,-1.1 -0.4,-1.8 -1.3,-2.2 z"
     id="path58"
     inkscape:connector-curvature="0" />
</svg>
